<?xml version="1.0" encoding="UTF-8" standalone="no"?>
<svg
   xmlns:dc="http://purl.org/dc/elements/1.1/"
   xmlns:cc="http://creativecommons.org/ns#"
   xmlns:rdf="http://www.w3.org/1999/02/22-rdf-syntax-ns#"
   xmlns:svg="http://www.w3.org/2000/svg"
   xmlns="http://www.w3.org/2000/svg"
   xmlns:sodipodi="http://sodipodi.sourceforge.net/DTD/sodipodi-0.dtd"
   xmlns:inkscape="http://www.inkscape.org/namespaces/inkscape"
   inkscape:version="1.0 (4035a4fb49, 2020-05-01)"
   sodipodi:docname="Logotipo Diana Controllers.svg"
   viewBox="0 0 947.37341 339.85931"
   height="339.85931"
   width="947.37341"
   xml:space="preserve"
   id="svg2"
   version="1.1"><metadata
     id="metadata8"><rdf:RDF><cc:Work
         rdf:about=""><dc:format>image/svg+xml</dc:format><dc:type
           rdf:resource="http://purl.org/dc/dcmitype/StillImage" /><dc:title></dc:title></cc:Work></rdf:RDF></metadata><defs
     id="defs6"><clipPath
       id="clipPath18"
       clipPathUnits="userSpaceOnUse"><path
         id="path16"
         d="M 0,365.278 H 792 V 0 H 0 Z" /></clipPath></defs><sodipodi:namedview
     inkscape:current-layer="g10"
     inkscape:window-maximized="1"
     inkscape:window-y="0"
     inkscape:window-x="1680"
     inkscape:cy="139.61052"
     inkscape:cx="473.6864"
     inkscape:zoom="1.2320076"
     fit-margin-bottom="0"
     fit-margin-right="0"
     fit-margin-left="0"
     fit-margin-top="0"
     showgrid="false"
     id="namedview4"
     inkscape:window-height="1026"
     inkscape:window-width="1920"
     inkscape:pageshadow="2"
     inkscape:pageopacity="0"
     guidetolerance="10"
     gridtolerance="10"
     objecttolerance="10"
     borderopacity="1"
     bordercolor="#666666"
     pagecolor="#ffffff" /><g
     transform="matrix(1.3333333,0,0,-1.3333333,-54.313599,383.12919)"
     inkscape:label="Logotipo Diana Controllers"
     inkscape:groupmode="layer"
     id="g10"><g
       id="g12"><g
         clip-path="url(#clipPath18)"
         id="g14"><g
           transform="translate(65.6059,133.385)"
           id="g20"><path
             id="path22"
             style="fill:#ffc74e;fill-opacity:1;fill-rule:nonzero;stroke:none"
             d="m 0,0 h 28.252 c 13.207,0 23.354,0.92 30.159,2.738 7.105,1.897 13.389,5.151 18.674,9.668 7.05,6.04 12.404,13.637 15.915,22.582 3.439,8.765 5.183,19.029 5.183,30.508 0,11.478 -1.744,21.742 -5.183,30.506 -3.512,8.943 -8.863,16.539 -15.908,22.579 -5.405,4.542 -11.899,7.795 -19.319,9.684 -7.104,1.809 -18.136,2.726 -32.791,2.726 H 0 Z m -22.693,-20.658 v 172.305 h 35.026 c 25.43,0 43.47,-1.272 53.618,-3.781 9.858,-2.439 18.599,-6.565 25.983,-12.262 9.818,-7.509 17.364,-17.289 22.438,-29.074 5.141,-11.95 7.747,-25.841 7.747,-41.284 0,-15.393 -2.604,-29.174 -7.74,-40.96 C 109.31,12.649 101.759,2.91 91.936,-4.658 c -7.389,-5.691 -15.937,-9.809 -25.407,-12.24 -9.712,-2.495 -25.267,-3.76 -46.235,-3.76 z" /></g><path
           id="path24"
           style="fill:#ffc74e;fill-opacity:1;fill-rule:nonzero;stroke:none"
           d="m 231.813,241.22 h 21.923 V 113.907 h -21.923 z" /><g
           transform="translate(257.1606,272.8889)"
           id="g26"><path
             id="path28"
             style="fill:#ffc74e;fill-opacity:1;fill-rule:nonzero;stroke:none"
             d="m 0,0 c 0,-7.985 -6.473,-14.458 -14.458,-14.458 -7.985,0 -14.458,6.473 -14.458,14.458 0,7.985 6.473,14.458 14.458,14.458 C -6.473,14.458 0,7.985 0,0" /></g><g
           transform="translate(360.2572,219.1618)"
           id="g30"><path
             id="path32"
             style="fill:#ffc74e;fill-opacity:1;fill-rule:nonzero;stroke:none"
             d="m 0,0 c -23.581,0 -42.937,-19.31 -43.147,-43.044 -0.207,-23.616 19.387,-43.762 42.792,-43.99 l 0.411,-0.002 c 24.031,-0.001 43.611,19.611 43.655,43.718 0.047,24.032 -18.953,43.056 -43.257,43.315 z m -1.909,-108.46 c -17.77,0 -33.147,7.147 -45.701,21.242 -20.494,23.008 -22.246,58.078 -4.166,83.392 12.448,17.427 29.178,26.263 49.728,26.263 11.185,0 23.436,-2.657 36.412,-7.897 l 3.269,-1.32 7.527,8.799 h 17.185 v -127.254 h -9.573 l -1.863,2.402 c -1.305,1.686 -2.675,3.452 -4.038,5.19 l -2.547,3.249 -3.636,-1.956 c -14.918,-8.036 -29.25,-12.11 -42.597,-12.11" /></g><g
           transform="translate(688.9213,219.1618)"
           id="g34"><path
             id="path36"
             style="fill:#ffc74e;fill-opacity:1;fill-rule:nonzero;stroke:none"
             d="m 0,0 c -23.583,0 -42.938,-19.31 -43.146,-43.044 -0.208,-23.616 19.387,-43.762 42.792,-43.99 l 0.41,-0.002 c 24.031,-0.001 43.61,19.611 43.654,43.718 0.047,24.032 -18.954,43.056 -43.257,43.315 z m -1.91,-108.46 c -17.77,0 -33.146,7.147 -45.699,21.242 -20.495,23.008 -22.248,58.078 -4.168,83.392 12.448,17.427 29.178,26.263 49.73,26.263 11.185,0 23.435,-2.657 36.411,-7.897 l 3.27,-1.32 7.527,8.799 h 17.183 v -127.172 h -9.583 l -8.438,10.759 -3.635,-1.956 c -14.918,-8.036 -29.25,-12.11 -42.598,-12.11" /></g><g
           transform="translate(470.5199,113.9011)"
           id="g38"><path
             id="path40"
             style="fill:#ffc74e;fill-opacity:1;fill-rule:nonzero;stroke:none"
             d="m 0,0 c 0.063,21.21 -0.102,106.409 -0.034,127.66 l 9.557,-0.039 6.101,-12.952 3.767,2.544 c 2.967,2 7.23,3.939 13.031,5.929 10.806,3.712 20.47,5.515 29.546,5.515 6.577,0 12.839,-0.997 18.614,-2.962 23.146,-7.874 34.883,-20.603 34.883,-37.836 0,0 -0.015,-77.058 -0.008,-87.827 L 92.248,0.028 c -0.009,8.589 0.012,77.007 0.012,77.007 0,8.617 -3.267,15.595 -10.284,21.961 -2.461,2.232 -4.904,3.533 -8.713,4.643 -3.59,1.047 -7.405,1.579 -11.337,1.579 -9.458,0 -19.197,-3.148 -26.719,-8.636 C 27.404,90.894 23.318,83.219 23.064,73.774 22.622,57.238 23.06,2.285 23.073,0.05 22.529,0.05 0.697,-0.002 0,0" /></g><g
           transform="translate(46.5522,33.9514)"
           id="g42"><path
             id="path44"
             style="fill:#030303;fill-opacity:1;fill-rule:nonzero;stroke:none"
             d="m 0,0 c -1.814,1 -3.237,2.384 -4.27,4.155 -1.032,1.771 -1.547,3.753 -1.547,5.948 0,2.193 0.515,4.176 1.547,5.946 1.033,1.771 2.461,3.156 4.287,4.156 1.824,0.999 3.866,1.499 6.126,1.499 1.694,0 3.258,-0.283 4.692,-0.848 1.434,-0.565 2.65,-1.39 3.65,-2.476 l -1.532,-1.532 c -1.781,1.803 -4.029,2.705 -6.746,2.705 -1.803,0 -3.443,-0.413 -4.92,-1.239 -1.477,-0.826 -2.635,-1.955 -3.471,-3.389 -0.837,-1.434 -1.254,-3.041 -1.254,-4.822 0,-1.782 0.417,-3.39 1.254,-4.824 0.836,-1.433 1.994,-2.564 3.471,-3.388 1.477,-0.827 3.117,-1.239 4.92,-1.239 2.738,0 4.986,0.912 6.746,2.738 L 14.485,1.858 C 13.485,0.771 12.263,-0.06 10.818,-0.635 9.374,-1.211 7.805,-1.499 6.11,-1.499 3.851,-1.499 1.813,-1 0,0" /></g><g
           transform="translate(87.7914,35.8254)"
           id="g46"><path
             id="path48"
             style="fill:#030303;fill-opacity:1;fill-rule:nonzero;stroke:none"
             d="m 0,0 c 1.455,0.814 2.596,1.944 3.422,3.389 0.825,1.445 1.238,3.058 1.238,4.84 0,1.781 -0.413,3.394 -1.238,4.839 -0.826,1.444 -1.967,2.574 -3.422,3.389 -1.456,0.814 -3.085,1.222 -4.889,1.222 -1.803,0 -3.437,-0.408 -4.904,-1.222 -1.466,-0.815 -2.618,-1.945 -3.454,-3.389 -0.837,-1.445 -1.254,-3.058 -1.254,-4.839 0,-1.782 0.417,-3.395 1.254,-4.84 0.836,-1.445 1.988,-2.575 3.454,-3.389 1.467,-0.815 3.101,-1.222 4.904,-1.222 1.804,0 3.433,0.407 4.889,1.222 m -11.03,-1.857 c -1.837,1.01 -3.271,2.395 -4.303,4.154 -1.032,1.76 -1.548,3.737 -1.548,5.932 0,2.193 0.516,4.17 1.548,5.93 1.032,1.76 2.466,3.145 4.303,4.155 1.835,1.01 3.883,1.516 6.141,1.516 2.26,0 4.297,-0.5 6.111,-1.499 1.813,-1 3.243,-2.385 4.285,-4.156 C 6.55,12.405 7.071,10.422 7.071,8.229 7.071,6.034 6.55,4.052 5.507,2.281 4.465,0.51 3.035,-0.875 1.222,-1.874 c -1.814,-1 -3.851,-1.499 -6.111,-1.499 -2.258,0 -4.306,0.505 -6.141,1.516" /></g><g
           transform="translate(126.5707,55.4592)"
           id="g50"><path
             id="path52"
             style="fill:#030303;fill-opacity:1;fill-rule:nonzero;stroke:none"
             d="m 0,0 v -22.811 h -1.988 l -14.664,18.51 v -18.51 h -2.411 V 0 h 1.987 L -2.379,-18.509 V 0 Z" /></g><g
           transform="translate(145.6664,53.3737)"
           id="g54"><path
             id="path56"
             style="fill:#030303;fill-opacity:1;fill-rule:nonzero;stroke:none"
             d="M 0,0 H -8.017 V 2.085 H 10.429 V 0 H 2.412 V -20.726 H 0 Z" /></g><g
           transform="translate(180.8285,43.4348)"
           id="g58"><path
             id="path60"
             style="fill:#030303;fill-opacity:1;fill-rule:nonzero;stroke:none"
             d="M 0,0 C 1.194,0.999 1.793,2.4 1.793,4.204 1.793,6.05 1.194,7.468 0,8.457 -1.195,9.445 -2.922,9.939 -5.182,9.939 h -6.06 V -1.499 h 6.06 C -2.922,-1.499 -1.195,-1 0,0 m 1.923,-10.787 -5.214,7.332 C -3.878,-3.52 -4.486,-3.552 -5.116,-3.552 h -6.126 v -7.235 h -2.411 v 22.811 h 8.537 c 2.911,0 5.192,-0.695 6.844,-2.085 C 3.378,8.548 4.204,6.637 4.204,4.204 4.204,2.422 3.753,0.917 2.852,-0.31 1.95,-1.537 0.662,-2.423 -1.01,-2.966 l 5.572,-7.821 z" /></g><g
           transform="translate(212.8295,35.8254)"
           id="g62"><path
             id="path64"
             style="fill:#030303;fill-opacity:1;fill-rule:nonzero;stroke:none"
             d="m 0,0 c 1.455,0.814 2.596,1.944 3.422,3.389 0.824,1.445 1.238,3.058 1.238,4.84 0,1.781 -0.414,3.394 -1.238,4.839 -0.826,1.444 -1.967,2.574 -3.422,3.389 -1.456,0.814 -3.085,1.222 -4.889,1.222 -1.803,0 -3.437,-0.408 -4.904,-1.222 -1.466,-0.815 -2.618,-1.945 -3.454,-3.389 -0.837,-1.445 -1.254,-3.058 -1.254,-4.839 0,-1.782 0.417,-3.395 1.254,-4.84 0.836,-1.445 1.988,-2.575 3.454,-3.389 1.467,-0.815 3.101,-1.222 4.904,-1.222 1.804,0 3.433,0.407 4.889,1.222 m -11.031,-1.857 c -1.836,1.01 -3.27,2.395 -4.302,4.154 -1.032,1.76 -1.548,3.737 -1.548,5.932 0,2.193 0.516,4.17 1.548,5.93 1.032,1.76 2.466,3.145 4.302,4.155 1.836,1.01 3.884,1.516 6.142,1.516 2.259,0 4.297,-0.5 6.111,-1.499 1.813,-1 3.242,-2.385 4.285,-4.156 C 6.55,12.405 7.071,10.422 7.071,8.229 7.071,6.034 6.55,4.052 5.507,2.281 4.464,0.51 3.035,-0.875 1.222,-1.874 c -1.814,-1 -3.852,-1.499 -6.111,-1.499 -2.258,0 -4.306,0.505 -6.142,1.516" /></g><g
           transform="translate(232.5453,55.4592)"
           id="g66"><path
             id="path68"
             style="fill:#030303;fill-opacity:1;fill-rule:nonzero;stroke:none"
             d="m 0,0 h 2.411 v -20.726 h 12.774 v -2.085 H 0 Z" /></g><g
           transform="translate(258.9731,55.4592)"
           id="g70"><path
             id="path72"
             style="fill:#030303;fill-opacity:1;fill-rule:nonzero;stroke:none"
             d="m 0,0 h 2.411 v -20.726 h 12.774 v -2.085 H 0 Z" /></g><g
           transform="translate(301.5316,34.7336)"
           id="g74"><path
             id="path76"
             style="fill:#030303;fill-opacity:1;fill-rule:nonzero;stroke:none"
             d="M 0,0 V -2.085 H -16.131 V 20.726 H -0.488 V 18.64 H -13.719 V 10.526 H -1.923 V 8.473 H -13.719 V 0 Z" /></g><g
           transform="translate(328.0902,43.4348)"
           id="g78"><path
             id="path80"
             style="fill:#030303;fill-opacity:1;fill-rule:nonzero;stroke:none"
             d="M 0,0 C 1.194,0.999 1.793,2.4 1.793,4.204 1.793,6.05 1.194,7.468 0,8.457 -1.195,9.445 -2.922,9.939 -5.182,9.939 h -6.06 V -1.499 h 6.06 C -2.922,-1.499 -1.195,-1 0,0 m 1.923,-10.787 -5.215,7.332 C -3.878,-3.52 -4.486,-3.552 -5.116,-3.552 h -6.126 v -7.235 h -2.411 v 22.811 h 8.537 c 2.911,0 5.192,-0.695 6.844,-2.085 C 3.378,8.548 4.204,6.637 4.204,4.204 4.204,2.422 3.753,0.917 2.852,-0.31 1.95,-1.537 0.662,-2.423 -1.01,-2.966 l 5.572,-7.821 z" /></g><g
           transform="translate(346.6488,33.2673)"
           id="g82"><path
             id="path84"
             style="fill:#030303;fill-opacity:1;fill-rule:nonzero;stroke:none"
             d="m 0,0 c -1.554,0.543 -2.754,1.26 -3.602,2.151 l 0.946,1.857 C -1.831,3.182 -0.733,2.514 0.636,2.004 2.004,1.493 3.416,1.238 4.872,1.238 c 2.041,0 3.572,0.375 4.595,1.125 1.02,0.749 1.531,1.721 1.531,2.916 0,0.913 -0.277,1.64 -0.831,2.183 C 9.613,8.005 8.934,8.424 8.131,8.717 7.326,9.01 6.208,9.331 4.773,9.678 c -1.715,0.435 -3.085,0.853 -4.105,1.255 -1.022,0.402 -1.897,1.015 -2.624,1.841 -0.728,0.826 -1.091,1.944 -1.091,3.357 0,1.151 0.304,2.2 0.912,3.145 0.609,0.945 1.542,1.699 2.803,2.265 1.26,0.564 2.823,0.847 4.692,0.847 1.304,0 2.579,-0.18 3.829,-0.538 1.249,-0.358 2.331,-0.853 3.243,-1.483 l -0.815,-1.923 c -0.956,0.63 -1.977,1.103 -3.063,1.418 -1.086,0.315 -2.151,0.473 -3.194,0.473 -1.999,0 -3.503,-0.386 -4.512,-1.157 -1.011,-0.772 -1.516,-1.765 -1.516,-2.982 0,-0.912 0.276,-1.646 0.83,-2.199 0.555,-0.555 1.25,-0.978 2.086,-1.272 0.836,-0.293 1.961,-0.614 3.373,-0.961 1.673,-0.413 3.025,-0.82 4.058,-1.222 1.031,-0.402 1.906,-1.01 2.623,-1.825 0.717,-0.814 1.075,-1.918 1.075,-3.307 0,-1.152 -0.31,-2.2 -0.929,-3.145 C 11.829,1.32 10.879,0.57 9.597,0.016 8.314,-0.538 6.74,-0.814 4.872,-0.814 3.177,-0.814 1.553,-0.543 0,0" /></g></g></g></g></svg>
